<svg width="260" height="260" viewBox="0 0 260 260" fill="none" xmlns="http://www.w3.org/2000/svg">
<path d="M260 108.675C260 164.304 212.791 260 150.227 260C87.6626 260 0 202.493 0 146.865C0 91.2361 84.1538 7.95117 146.718 7.95117C209.282 7.95117 260 53.0469 260 108.675Z" fill="#BCB3B5"/>
<path d="M158.008 116.981C167.415 108.997 182.376 105.913 197.938 110.001C221.369 116.156 237.286 136.235 233.49 154.847C229.694 173.459 207.623 183.557 184.192 177.402C183.494 177.218 182.803 177.022 182.118 176.814C177.369 180.497 171.817 183.54 165.676 185.633C142.642 193.484 120.045 185.016 115.202 166.72C110.36 148.423 125.108 127.226 148.142 119.374C151.457 118.245 154.763 117.454 158.008 116.981Z" fill="black"/>
<path d="M152.515 111.045C163.675 103.062 181.426 99.9792 199.889 104.067C227.688 110.222 246.574 130.3 242.07 148.912C237.567 167.524 211.379 177.621 183.58 171.467C182.751 171.283 181.93 171.086 181.118 170.879C175.484 174.561 168.897 177.605 161.611 179.698C134.282 187.549 107.47 179.082 101.725 160.785C95.9808 142.488 113.479 121.291 140.807 113.439C144.741 112.309 148.664 111.518 152.515 111.045Z" fill="#D9D6DE"/>
<path d="M131.565 0.922957C188.516 -4.68657 237.384 15.8529 240.716 46.7989C242.874 66.8558 225.374 86.3608 197.287 99.1319C199.706 99.8874 202.173 100.82 204.642 101.93C220.403 109.014 230.288 120.644 226.72 127.906C223.605 134.248 211.26 135.16 197.685 130.571C196.105 140.274 190.397 148.338 181.577 151.642C169.816 156.047 156.109 150.648 147.478 139.306C146.892 139.745 146.294 140.181 145.682 140.609C131.62 150.433 116.209 153.145 111.261 146.665C106.314 140.185 113.703 126.968 127.765 117.144C129.562 115.889 131.38 114.75 133.196 113.732C80.8251 116.026 37.6045 96.1514 34.4782 67.1134C31.1469 36.1673 74.6142 6.53262 131.565 0.922957Z" fill="#696269"/>
<path d="M173.665 125.383C177.523 125.383 180.776 128.137 181.806 131.905C189.444 131.696 195.332 133.805 196.29 137.613C197.591 142.786 191.176 153.76 179.654 156.412C168.132 159.064 155.865 152.392 154.563 147.219C153.582 143.318 158.053 138.752 165.252 135.604C165.207 135.227 165.181 134.843 165.181 134.453C165.181 129.444 168.98 125.383 173.665 125.383Z" fill="#4C4B5D"/>
<ellipse cx="210.096" cy="92.4446" rx="10.9789" ry="10.0247" fill="black"/>
<ellipse cx="107.293" cy="110.585" rx="10.9789" ry="10.0247" fill="black"/>
<path d="M14.8962 65.491C21.394 58.3184 43.9684 57.3805 52.5085 64.4588C61.0486 71.5372 52.3204 83.9518 45.8229 91.1248C39.3255 98.2978 30.1736 104.052 21.6335 96.9735C13.0933 89.895 8.39876 72.664 14.8962 65.491ZM213.589 27.5223C221.005 19.3665 239.026 14.909 246.512 21.1375C253.999 27.3662 254.938 48.9619 247.522 57.118C240.106 65.2738 227.144 56.9014 219.658 50.6727C212.171 44.444 206.173 35.6782 213.589 27.5223Z" fill="#312E37"/>
<ellipse cx="214.088" cy="95.7861" rx="2.99424" ry="2.86419" fill="white"/>
<ellipse cx="207.102" cy="90.0582" rx="3.99232" ry="3.81892" fill="white"/>
<ellipse cx="111.286" cy="113.927" rx="2.99424" ry="2.86419" fill="white"/>
<ellipse cx="104.299" cy="108.198" rx="3.99232" ry="3.81892" fill="white"/>
</svg>
